<svg xmlns="http://www.w3.org/2000/svg" viewBox="0 0 200 200" width="200" height="200">
  <defs>
    <linearGradient id="grad1" x1="0%" y1="0%" x2="100%" y2="100%">
      <stop offset="0%" style="stop-color:#2196F3;stop-opacity:1" />
      <stop offset="100%" style="stop-color:#4CAF50;stop-opacity:1" />
    </linearGradient>
  </defs>
  <!-- Background Circle -->
  <circle cx="100" cy="100" r="90" fill="url(#grad1)" opacity="0.1"/>
  <circle cx="100" cy="100" r="80" fill="url(#grad1)"/>
  
  <!-- QR Code Pattern -->
  <rect x="60" y="60" width="20" height="20" fill="white"/>
  <rect x="60" y="85" width="20" height="10" fill="white"/>
  <rect x="60" y="100" width="10" height="20" fill="white"/>
  <rect x="75" y="100" width="5" height="5" fill="white"/>
  <rect x="85" y="100" width="5" height="5" fill="white"/>
  <rect x="75" y="110" width="5" height="5" fill="white"/>
  <rect x="85" y="110" width="5" height="5" fill="white"/>
  
  <rect x="120" y="60" width="20" height="20" fill="white"/>
  <rect x="120" y="85" width="20" height="10" fill="white"/>
  <rect x="120" y="100" width="10" height="20" fill="white"/>
  <rect x="135" y="100" width="5" height="5" fill="white"/>
  <rect x="145" y="100" width="5" height="5" fill="white"/>
  <rect x="135" y="110" width="5" height="5" fill="white"/>
  <rect x="145" y="110" width="5" height="5" fill="white"/>
  
  <rect x="60" y="120" width="20" height="20" fill="white"/>
  <rect x="120" y="120" width="20" height="20" fill="white"/>
  
  <!-- Payment Arrow -->
  <path d="M 100 40 L 100 60 M 95 55 L 100 60 L 105 55" stroke="white" stroke-width="3" fill="none" stroke-linecap="round"/>
</svg>


